ply
format ascii 1.0
comment Created by Blender 2.90.0 - www.blender.org
element vertex 397
property float x
property float y
property float z
property float nx
property float ny
property float nz
property uchar red
property uchar green
property uchar blue
property uchar alpha
element face 637
property list uchar uint vertex_indices
end_header
1.772944 0.390400 1.243435 0.035371 0.156835 0.986969 255 217 15 255
-1.772944 -0.390400 1.243435 -0.035371 -0.156835 0.986969 255 217 15 255
1.772944 -0.390400 1.243435 0.035371 -0.156835 0.986969 255 217 15 255
2.270677 0.390400 -0.970874 0.959166 0.259804 -0.111728 255 217 15 255
2.270677 -0.390400 0.970874 0.959166 -0.259804 0.111728 255 217 15 255
2.270677 -0.390400 -0.970874 0.959166 -0.259804 -0.111728 255 217 15 255
-1.772944 0.500000 -0.970874 -0.014466 0.999542 -0.026399 255 217 15 255
1.772944 0.500000 0.970874 0.014466 0.999542 0.026399 255 217 15 255
1.772944 0.500000 -0.970874 0.014466 0.999542 -0.026399 255 217 15 255
-2.270677 0.390400 0.970874 -0.959166 0.259804 0.111728 255 217 15 255
-2.270677 -0.390400 -0.970874 -0.959166 -0.259804 -0.111728 255 217 15 255
-2.270677 -0.390400 0.970874 -0.959166 -0.259804 0.111728 255 217 15 255
-1.772944 0.390400 -1.243435 -0.035371 0.156835 -0.986969 255 217 15 255
1.772944 -0.390400 -1.243435 0.035371 -0.156835 -0.986969 255 217 15 255
-1.772944 -0.390400 -1.243435 -0.035371 -0.156835 -0.986969 255 217 15 255
-1.772944 -0.496268 1.041393 -0.014863 -0.993927 0.108768 255 217 15 255
-1.901722 -0.496268 0.970874 -0.059877 -0.997803 0.028047 255 217 15 255
-1.772944 -0.500000 0.970874 -0.014466 -0.999542 0.026399 255 217 15 255
-1.772944 -0.485311 1.107177 -0.015809 -0.972930 0.230476 255 217 15 255
-1.905775 -0.491825 1.044212 -0.064028 -0.991150 0.116123 255 217 15 255
-1.772944 -0.467899 1.163604 -0.018281 -0.923948 0.382031 255 217 15 255
-1.903606 -0.480743 1.107595 -0.066744 -0.968841 0.238502 255 217 15 255
-2.021851 -0.485311 0.970874 -0.129276 -0.991119 0.030366 255 217 15 255
-2.022748 -0.480672 1.042836 -0.134434 -0.983093 0.124058 255 217 15 255
-1.999603 -0.459401 1.142451 -0.137669 -0.916318 0.376019 255 217 15 255
-2.010032 -0.471384 1.100768 -0.132664 -0.960753 0.243538 255 217 15 255
-2.124895 -0.467899 0.970874 -0.223792 -0.973937 0.036134 255 217 15 255
-2.086301 -0.459393 1.094993 -0.212409 -0.940458 0.265297 255 217 15 255
-2.113218 -0.465258 1.040962 -0.222114 -0.964354 0.143681 255 217 15 255
-2.060310 -0.453678 1.128237 -0.198462 -0.907315 0.370586 255 217 15 255
-1.901722 -0.390400 1.234154 -0.142033 -0.164678 0.976043 255 217 15 255
-1.772944 -0.418757 1.234154 -0.031373 -0.527329 0.849055 255 217 15 255
-2.021851 -0.390400 1.206906 -0.300058 -0.172002 0.938261 255 217 15 255
-1.906870 -0.419649 1.223104 -0.134648 -0.541734 0.829676 255 217 15 255
-2.124895 -0.390400 1.163604 -0.484359 -0.188574 0.854274 255 217 15 255
-2.022615 -0.419171 1.195546 -0.267006 -0.554338 0.788263 255 217 15 255
-1.772944 -0.445209 1.206906 -0.023591 -0.808557 0.587939 255 217 15 255
-1.904357 -0.445406 1.195370 -0.096500 -0.815424 0.570727 255 217 15 255
-2.086267 -0.440310 1.142470 -0.271554 -0.822626 0.499496 255 217 15 255
-2.010148 -0.442606 1.172272 -0.184606 -0.815363 0.548723 255 217 15 255
-1.900935 -0.465328 1.157036 -0.073122 -0.921995 0.380200 255 217 15 255
-2.253730 -0.418757 0.970874 -0.696005 -0.712882 0.085513 255 217 15 255
-2.253730 -0.390400 1.041393 -0.879177 -0.253548 0.403394 255 217 15 255
-2.203970 -0.445209 0.970874 -0.379681 -0.923673 0.051363 255 217 15 255
-2.233551 -0.419890 1.043613 -0.638264 -0.695975 0.328929 255 217 15 255
-2.183225 -0.445377 1.042425 -0.359813 -0.910642 0.202979 255 217 15 255
-2.203970 -0.390400 1.107177 -0.688559 -0.225074 0.689322 255 217 15 255
-2.182904 -0.419337 1.107668 -0.520188 -0.639088 0.566485 255 217 15 255
-2.140724 -0.442632 1.100705 -0.323679 -0.871059 0.369396 255 217 15 255
-2.112901 -0.418583 1.157210 -0.395734 -0.580676 0.711447 255 217 15 255
-1.772944 0.418757 1.234154 -0.031159 0.527238 0.849117 255 217 15 255
-1.901722 0.390400 1.234154 -0.142766 0.165593 0.975799 255 217 15 255
-1.772944 0.390400 1.243435 -0.035371 0.156835 0.986969 255 217 15 255
-1.772944 0.445209 1.206906 -0.023316 0.808618 0.587848 255 217 15 255
-1.905775 0.419890 1.223104 -0.133335 0.543565 0.828669 255 217 15 255
-1.772944 0.467899 1.163604 -0.018250 0.923978 0.381970 255 217 15 255
-1.903606 0.445377 1.195546 -0.096194 0.815607 0.570513 255 217 15 255
-2.021851 0.390400 1.206906 -0.299753 0.173101 0.938169 255 217 15 255
-2.022748 0.419337 1.195370 -0.266823 0.555650 0.787408 255 217 15 255
-1.999603 0.459393 1.142470 -0.137669 0.916288 0.376080 255 217 15 255
-2.010032 0.442632 1.172272 -0.184088 0.815760 0.548296 255 217 15 255
-2.124895 0.390400 1.163604 -0.484024 0.188360 0.854518 255 217 15 255
-2.086301 0.440310 1.142451 -0.271706 0.822657 0.499374 255 217 15 255
-2.113218 0.418583 1.157036 -0.396344 0.581072 0.710776 255 217 15 255
-2.060310 0.453678 1.128237 -0.198462 0.907315 0.370617 255 217 15 255
-1.901722 0.496268 0.970874 -0.059755 0.997803 0.027833 255 217 15 255
-1.772944 0.496268 1.041393 -0.014985 0.993927 0.108829 255 217 15 255
-1.772944 0.500000 0.970874 -0.014466 0.999542 0.026399 255 217 15 255
-2.021851 0.485311 0.970874 -0.129337 0.991119 0.030152 255 217 15 255
-1.906870 0.491825 1.043613 -0.064364 0.991180 0.115665 255 217 15 255
-2.124895 0.467899 0.970874 -0.223884 0.973937 0.036164 255 217 15 255
-2.022615 0.480743 1.042425 -0.134434 0.983154 0.123630 255 217 15 255
-1.772944 0.485311 1.107177 -0.015961 0.972930 0.230415 255 217 15 255
-1.904357 0.480672 1.107668 -0.066988 0.968810 0.238502 255 217 15 255
-2.086267 0.459401 1.094993 -0.212317 0.940489 0.265236 255 217 15 255
-2.010148 0.471384 1.100705 -0.132878 0.960784 0.243294 255 217 15 255
-1.900935 0.465258 1.157210 -0.073244 0.921781 0.380657 255 217 15 255
-2.253730 0.390400 1.041393 -0.879757 0.252632 0.402722 255 217 15 255
-2.253730 0.418757 0.970874 -0.695791 0.713065 0.085849 255 217 15 255
-2.203970 0.390400 1.107177 -0.688498 0.223426 0.689932 255 217 15 255
-2.233551 0.419649 1.044212 -0.639424 0.693686 0.331462 255 217 15 255
-2.183225 0.419171 1.107595 -0.520829 0.637898 0.567248 255 217 15 255
-2.203970 0.445209 0.970874 -0.379894 0.923551 0.051943 255 217 15 255
-2.182904 0.445406 1.042836 -0.360027 0.910428 0.203589 255 217 15 255
-2.140724 0.442606 1.100768 -0.324015 0.870510 0.370403 255 217 15 255
-2.112901 0.465328 1.040962 -0.221686 0.964476 0.143437 255 217 15 255
-1.901722 -0.496268 -0.970874 -0.059755 -0.997803 -0.027833 255 217 15 255
-1.772944 -0.496268 -1.041393 -0.014985 -0.993927 -0.108829 255 217 15 255
-1.772944 -0.500000 -0.970874 -0.014466 -0.999542 -0.026399 255 217 15 255
-2.021851 -0.485311 -0.970874 -0.129337 -0.991119 -0.030152 255 217 15 255
-1.906870 -0.491825 -1.043613 -0.064364 -0.991180 -0.115665 255 217 15 255
-2.124895 -0.467899 -0.970874 -0.223884 -0.973937 -0.036164 255 217 15 255
-2.022615 -0.480743 -1.042425 -0.134434 -0.983154 -0.123630 255 217 15 255
-1.772944 -0.485311 -1.107177 -0.015961 -0.972930 -0.230415 255 217 15 255
-1.904357 -0.480672 -1.107668 -0.066988 -0.968810 -0.238502 255 217 15 255
-2.086267 -0.459401 -1.094993 -0.212317 -0.940489 -0.265236 255 217 15 255
-2.010148 -0.471384 -1.100705 -0.132878 -0.960784 -0.243294 255 217 15 255
-1.772944 -0.467899 -1.163604 -0.018250 -0.923978 -0.381970 255 217 15 255
-1.999603 -0.459393 -1.142470 -0.137669 -0.916288 -0.376080 255 217 15 255
-1.900935 -0.465258 -1.157210 -0.073244 -0.921781 -0.380657 255 217 15 255
-2.060310 -0.453678 -1.128237 -0.198462 -0.907315 -0.370617 255 217 15 255
-2.253730 -0.390400 -1.041393 -0.879757 -0.252632 -0.402722 255 217 15 255
-2.253730 -0.418757 -0.970874 -0.695791 -0.713065 -0.085849 255 217 15 255
-2.203970 -0.390400 -1.107177 -0.688498 -0.223426 -0.689932 255 217 15 255
-2.233551 -0.419649 -1.044212 -0.639424 -0.693686 -0.331462 255 217 15 255
-2.124895 -0.390400 -1.163604 -0.484024 -0.188360 -0.854518 255 217 15 255
-2.183225 -0.419171 -1.107595 -0.520829 -0.637898 -0.567248 255 217 15 255
-2.203970 -0.445209 -0.970874 -0.379894 -0.923551 -0.051943 255 217 15 255
-2.182904 -0.445406 -1.042836 -0.360027 -0.910428 -0.203589 255 217 15 255
-2.086301 -0.440310 -1.142451 -0.271706 -0.822657 -0.499374 255 217 15 255
-2.140724 -0.442606 -1.100768 -0.324015 -0.870510 -0.370403 255 217 15 255
-2.112901 -0.465328 -1.040962 -0.221686 -0.964476 -0.143437 255 217 15 255
-1.772944 -0.418757 -1.234154 -0.031159 -0.527238 -0.849117 255 217 15 255
-1.901722 -0.390400 -1.234154 -0.142766 -0.165593 -0.975799 255 217 15 255
-1.772944 -0.445209 -1.206906 -0.023316 -0.808618 -0.587848 255 217 15 255
-1.905775 -0.419890 -1.223104 -0.133335 -0.543565 -0.828669 255 217 15 255
-1.903606 -0.445377 -1.195546 -0.096194 -0.815607 -0.570513 255 217 15 255
-2.021851 -0.390400 -1.206906 -0.299753 -0.173101 -0.938169 255 217 15 255
-2.022748 -0.419337 -1.195370 -0.266823 -0.555650 -0.787408 255 217 15 255
-2.010032 -0.442632 -1.172272 -0.184088 -0.815760 -0.548296 255 217 15 255
-2.113218 -0.418583 -1.157036 -0.396344 -0.581072 -0.710776 255 217 15 255
-1.772944 0.496268 -1.041393 -0.014863 0.993927 -0.108768 255 217 15 255
-1.901722 0.496268 -0.970874 -0.059877 0.997803 -0.028047 255 217 15 255
-1.772944 0.485311 -1.107177 -0.015809 0.972930 -0.230476 255 217 15 255
-1.905775 0.491825 -1.044212 -0.064028 0.991150 -0.116123 255 217 15 255
-1.772944 0.467899 -1.163604 -0.018281 0.923948 -0.382031 255 217 15 255
-1.903606 0.480743 -1.107595 -0.066744 0.968841 -0.238502 255 217 15 255
-2.021851 0.485311 -0.970874 -0.129276 0.991119 -0.030366 255 217 15 255
-2.022748 0.480672 -1.042836 -0.134434 0.983093 -0.124058 255 217 15 255
-1.999603 0.459401 -1.142451 -0.137669 0.916318 -0.376019 255 217 15 255
-2.010032 0.471384 -1.100768 -0.132664 0.960753 -0.243538 255 217 15 255
-2.124895 0.467899 -0.970874 -0.223792 0.973937 -0.036134 255 217 15 255
-2.086301 0.459393 -1.094993 -0.212409 0.940458 -0.265297 255 217 15 255
-2.113218 0.465258 -1.040962 -0.222114 0.964354 -0.143681 255 217 15 255
-2.060310 0.453678 -1.128237 -0.198462 0.907315 -0.370586 255 217 15 255
-1.901722 0.390400 -1.234154 -0.142033 0.164678 -0.976043 255 217 15 255
-1.772944 0.418757 -1.234154 -0.031373 0.527329 -0.849055 255 217 15 255
-2.021851 0.390400 -1.206906 -0.300058 0.172002 -0.938261 255 217 15 255
-1.906870 0.419649 -1.223104 -0.134648 0.541734 -0.829676 255 217 15 255
-2.124895 0.390400 -1.163604 -0.484359 0.188574 -0.854274 255 217 15 255
-2.022615 0.419171 -1.195546 -0.267006 0.554338 -0.788263 255 217 15 255
-1.772944 0.445209 -1.206906 -0.023591 0.808557 -0.587939 255 217 15 255
-1.904357 0.445406 -1.195370 -0.096500 0.815424 -0.570727 255 217 15 255
-2.086267 0.440310 -1.142470 -0.271554 0.822626 -0.499496 255 217 15 255
-2.010148 0.442606 -1.172272 -0.184606 0.815363 -0.548723 255 217 15 255
-1.900935 0.465328 -1.157036 -0.073122 0.921995 -0.380200 255 217 15 255
-2.253730 0.418757 -0.970874 -0.696005 0.712882 -0.085513 255 217 15 255
-2.253730 0.390400 -1.041393 -0.879177 0.253548 -0.403394 255 217 15 255
-2.270677 0.390400 -0.970874 -0.959166 0.259804 -0.111728 255 217 15 255
-2.203970 0.445209 -0.970874 -0.379681 0.923673 -0.051363 255 217 15 255
-2.233551 0.419890 -1.043613 -0.638264 0.695975 -0.328929 255 217 15 255
-2.183225 0.445377 -1.042425 -0.359813 0.910642 -0.202979 255 217 15 255
-2.203970 0.390400 -1.107177 -0.688559 0.225074 -0.689322 255 217 15 255
-2.182904 0.419337 -1.107668 -0.520188 0.639088 -0.566485 255 217 15 255
-2.140724 0.442632 -1.100705 -0.323679 0.871059 -0.369396 255 217 15 255
-2.112901 0.418583 -1.157210 -0.395734 0.580676 -0.711447 255 217 15 255
1.901722 -0.496268 0.970874 0.059755 -0.997803 0.027833 255 217 15 255
1.772944 -0.496268 1.041393 0.014985 -0.993927 0.108829 255 217 15 255
1.772944 -0.500000 0.970874 0.014466 -0.999542 0.026399 255 217 15 255
2.021851 -0.485311 0.970874 0.129337 -0.991119 0.030152 255 217 15 255
1.906870 -0.491825 1.043613 0.064364 -0.991180 0.115665 255 217 15 255
2.124895 -0.467899 0.970874 0.223884 -0.973937 0.036164 255 217 15 255
2.022615 -0.480743 1.042425 0.134434 -0.983154 0.123630 255 217 15 255
1.772944 -0.485311 1.107177 0.015961 -0.972930 0.230415 255 217 15 255
1.904357 -0.480672 1.107668 0.066988 -0.968810 0.238502 255 217 15 255
2.086267 -0.459401 1.094993 0.212317 -0.940489 0.265236 255 217 15 255
2.010148 -0.471384 1.100705 0.132878 -0.960784 0.243294 255 217 15 255
1.772944 -0.467899 1.163604 0.018250 -0.923978 0.381970 255 217 15 255
1.999603 -0.459393 1.142470 0.137669 -0.916288 0.376080 255 217 15 255
1.900935 -0.465258 1.157210 0.073244 -0.921781 0.380657 255 217 15 255
2.060310 -0.453678 1.128237 0.198462 -0.907315 0.370617 255 217 15 255
2.253730 -0.390400 1.041393 0.879757 -0.252632 0.402722 255 217 15 255
2.253730 -0.418757 0.970874 0.695791 -0.713065 0.085849 255 217 15 255
2.203970 -0.390400 1.107177 0.688498 -0.223426 0.689932 255 217 15 255
2.233551 -0.419649 1.044212 0.639424 -0.693686 0.331462 255 217 15 255
2.124895 -0.390400 1.163604 0.484024 -0.188360 0.854518 255 217 15 255
2.183225 -0.419171 1.107595 0.520829 -0.637898 0.567248 255 217 15 255
2.203970 -0.445209 0.970874 0.379894 -0.923551 0.051943 255 217 15 255
2.182904 -0.445406 1.042836 0.360027 -0.910428 0.203589 255 217 15 255
2.086301 -0.440310 1.142451 0.271706 -0.822657 0.499374 255 217 15 255
2.140724 -0.442606 1.100768 0.324015 -0.870510 0.370403 255 217 15 255
2.112901 -0.465328 1.040962 0.221686 -0.964476 0.143437 255 217 15 255
1.772944 -0.418757 1.234154 0.031159 -0.527238 0.849117 255 217 15 255
1.901722 -0.390400 1.234154 0.142766 -0.165593 0.975799 255 217 15 255
1.772944 -0.445209 1.206906 0.023316 -0.808618 0.587848 255 217 15 255
1.905775 -0.419890 1.223104 0.133335 -0.543565 0.828669 255 217 15 255
1.903606 -0.445377 1.195546 0.096194 -0.815607 0.570513 255 217 15 255
2.021851 -0.390400 1.206906 0.299753 -0.173101 0.938169 255 217 15 255
2.022748 -0.419337 1.195370 0.266823 -0.555650 0.787408 255 217 15 255
2.010032 -0.442632 1.172272 0.184088 -0.815760 0.548296 255 217 15 255
2.113218 -0.418583 1.157036 0.396344 -0.581072 0.710776 255 217 15 255
1.772944 0.496268 1.041393 0.014863 0.993927 0.108768 255 217 15 255
1.901722 0.496268 0.970874 0.059877 0.997803 0.028047 255 217 15 255
1.772944 0.485311 1.107177 0.015809 0.972930 0.230476 255 217 15 255
1.905775 0.491825 1.044212 0.064028 0.991150 0.116123 255 217 15 255
1.772944 0.467899 1.163604 0.018281 0.923948 0.382031 255 217 15 255
1.903606 0.480743 1.107595 0.066744 0.968841 0.238502 255 217 15 255
2.021851 0.485311 0.970874 0.129276 0.991119 0.030366 255 217 15 255
2.022748 0.480672 1.042836 0.134434 0.983093 0.124058 255 217 15 255
1.999603 0.459401 1.142451 0.137669 0.916318 0.376019 255 217 15 255
2.010032 0.471384 1.100768 0.132664 0.960753 0.243538 255 217 15 255
2.124895 0.467899 0.970874 0.223792 0.973937 0.036134 255 217 15 255
2.086301 0.459393 1.094993 0.212409 0.940458 0.265297 255 217 15 255
2.113218 0.465258 1.040962 0.222114 0.964354 0.143681 255 217 15 255
2.060310 0.453678 1.128237 0.198462 0.907315 0.370586 255 217 15 255
1.901722 0.390400 1.234154 0.142033 0.164678 0.976043 255 217 15 255
1.772944 0.418757 1.234154 0.031373 0.527329 0.849055 255 217 15 255
2.021851 0.390400 1.206906 0.300058 0.172002 0.938261 255 217 15 255
1.906870 0.419649 1.223104 0.134648 0.541734 0.829676 255 217 15 255
2.124895 0.390400 1.163604 0.484359 0.188574 0.854274 255 217 15 255
2.022615 0.419171 1.195546 0.267006 0.554338 0.788263 255 217 15 255
1.772944 0.445209 1.206906 0.023591 0.808557 0.587939 255 217 15 255
1.904357 0.445406 1.195370 0.096500 0.815424 0.570727 255 217 15 255
2.086267 0.440310 1.142470 0.271554 0.822626 0.499496 255 217 15 255
2.010148 0.442606 1.172272 0.184606 0.815363 0.548723 255 217 15 255
1.900935 0.465328 1.157036 0.073122 0.921995 0.380200 255 217 15 255
2.253730 0.418757 0.970874 0.696005 0.712882 0.085513 255 217 15 255
2.253730 0.390400 1.041393 0.879177 0.253548 0.403394 255 217 15 255
2.270677 0.390400 0.970874 0.959166 0.259804 0.111728 255 217 15 255
2.203970 0.445209 0.970874 0.379681 0.923673 0.051363 255 217 15 255
2.233551 0.419890 1.043613 0.638264 0.695975 0.328929 255 217 15 255
2.183225 0.445377 1.042425 0.359813 0.910642 0.202979 255 217 15 255
2.203970 0.390400 1.107177 0.688559 0.225074 0.689322 255 217 15 255
2.182904 0.419337 1.107668 0.520188 0.639088 0.566485 255 217 15 255
2.140724 0.442632 1.100705 0.323679 0.871059 0.369396 255 217 15 255
2.112901 0.418583 1.157210 0.395734 0.580676 0.711447 255 217 15 255
1.772944 -0.496268 -1.041393 0.014863 -0.993927 -0.108768 255 217 15 255
1.901722 -0.496268 -0.970874 0.059877 -0.997803 -0.028047 255 217 15 255
1.772944 -0.500000 -0.970874 0.014466 -0.999542 -0.026399 255 217 15 255
1.772944 -0.485311 -1.107177 0.015809 -0.972930 -0.230476 255 217 15 255
1.905775 -0.491825 -1.044212 0.064028 -0.991150 -0.116123 255 217 15 255
1.772944 -0.467899 -1.163604 0.018281 -0.923948 -0.382031 255 217 15 255
1.903606 -0.480743 -1.107595 0.066744 -0.968841 -0.238502 255 217 15 255
2.021851 -0.485311 -0.970874 0.129276 -0.991119 -0.030366 255 217 15 255
2.022748 -0.480672 -1.042836 0.134434 -0.983093 -0.124058 255 217 15 255
1.999603 -0.459401 -1.142451 0.137669 -0.916318 -0.376019 255 217 15 255
2.010032 -0.471384 -1.100768 0.132664 -0.960753 -0.243538 255 217 15 255
2.124895 -0.467899 -0.970874 0.223792 -0.973937 -0.036134 255 217 15 255
2.086301 -0.459393 -1.094993 0.212409 -0.940458 -0.265297 255 217 15 255
2.113218 -0.465258 -1.040962 0.222114 -0.964354 -0.143681 255 217 15 255
2.060310 -0.453678 -1.128237 0.198462 -0.907315 -0.370586 255 217 15 255
1.901722 -0.390400 -1.234154 0.142033 -0.164678 -0.976043 255 217 15 255
1.772944 -0.418757 -1.234154 0.031373 -0.527329 -0.849055 255 217 15 255
2.021851 -0.390400 -1.206906 0.300058 -0.172002 -0.938261 255 217 15 255
1.906870 -0.419649 -1.223104 0.134648 -0.541734 -0.829676 255 217 15 255
2.124895 -0.390400 -1.163604 0.484359 -0.188574 -0.854274 255 217 15 255
2.022615 -0.419171 -1.195546 0.267006 -0.554338 -0.788263 255 217 15 255
1.772944 -0.445209 -1.206906 0.023591 -0.808557 -0.587939 255 217 15 255
1.904357 -0.445406 -1.195370 0.096500 -0.815424 -0.570727 255 217 15 255
2.086267 -0.440310 -1.142470 0.271554 -0.822626 -0.499496 255 217 15 255
2.010148 -0.442606 -1.172272 0.184606 -0.815363 -0.548723 255 217 15 255
1.900935 -0.465328 -1.157036 0.073122 -0.921995 -0.380200 255 217 15 255
2.253730 -0.418757 -0.970874 0.696005 -0.712882 -0.085513 255 217 15 255
2.253730 -0.390400 -1.041393 0.879177 -0.253548 -0.403394 255 217 15 255
2.203970 -0.445209 -0.970874 0.379681 -0.923673 -0.051363 255 217 15 255
2.233551 -0.419890 -1.043613 0.638264 -0.695975 -0.328929 255 217 15 255
2.183225 -0.445377 -1.042425 0.359813 -0.910642 -0.202979 255 217 15 255
2.203970 -0.390400 -1.107177 0.688559 -0.225074 -0.689322 255 217 15 255
2.182904 -0.419337 -1.107668 0.520188 -0.639088 -0.566485 255 217 15 255
2.140724 -0.442632 -1.100705 0.323679 -0.871059 -0.369396 255 217 15 255
2.112901 -0.418583 -1.157210 0.395734 -0.580676 -0.711447 255 217 15 255
1.901722 0.496268 -0.970874 0.059755 0.997803 -0.027833 255 217 15 255
1.772944 0.496268 -1.041393 0.014985 0.993927 -0.108829 255 217 15 255
2.021851 0.485311 -0.970874 0.129337 0.991119 -0.030152 255 217 15 255
1.906870 0.491825 -1.043613 0.064364 0.991180 -0.115665 255 217 15 255
2.124895 0.467899 -0.970874 0.223884 0.973937 -0.036164 255 217 15 255
2.022615 0.480743 -1.042425 0.134434 0.983154 -0.123630 255 217 15 255
1.772944 0.485311 -1.107177 0.015961 0.972930 -0.230415 255 217 15 255
1.904357 0.480672 -1.107668 0.066988 0.968810 -0.238502 255 217 15 255
2.086267 0.459401 -1.094993 0.212317 0.940489 -0.265236 255 217 15 255
2.010148 0.471384 -1.100705 0.132878 0.960784 -0.243294 255 217 15 255
1.772944 0.467899 -1.163604 0.018250 0.923978 -0.381970 255 217 15 255
1.999603 0.459393 -1.142470 0.137669 0.916288 -0.376080 255 217 15 255
1.900935 0.465258 -1.157210 0.073244 0.921781 -0.380657 255 217 15 255
2.060310 0.453678 -1.128237 0.198462 0.907315 -0.370617 255 217 15 255
2.253730 0.390400 -1.041393 0.879757 0.252632 -0.402722 255 217 15 255
2.253730 0.418757 -0.970874 0.695791 0.713065 -0.085849 255 217 15 255
2.203970 0.390400 -1.107177 0.688498 0.223426 -0.689932 255 217 15 255
2.233551 0.419649 -1.044212 0.639424 0.693686 -0.331462 255 217 15 255
2.124895 0.390400 -1.163604 0.484024 0.188360 -0.854518 255 217 15 255
2.183225 0.419171 -1.107595 0.520829 0.637898 -0.567248 255 217 15 255
2.203970 0.445209 -0.970874 0.379894 0.923551 -0.051943 255 217 15 255
2.182904 0.445406 -1.042836 0.360027 0.910428 -0.203589 255 217 15 255
2.086301 0.440310 -1.142451 0.271706 0.822657 -0.499374 255 217 15 255
2.140724 0.442606 -1.100768 0.324015 0.870510 -0.370403 255 217 15 255
2.112901 0.465328 -1.040962 0.221686 0.964476 -0.143437 255 217 15 255
1.772944 0.418757 -1.234154 0.031159 0.527238 -0.849117 255 217 15 255
1.901722 0.390400 -1.234154 0.142766 0.165593 -0.975799 255 217 15 255
1.772944 0.390400 -1.243435 0.035371 0.156835 -0.986969 255 217 15 255
1.772944 0.445209 -1.206906 0.023316 0.808618 -0.587848 255 217 15 255
1.905775 0.419890 -1.223104 0.133335 0.543565 -0.828669 255 217 15 255
1.903606 0.445377 -1.195546 0.096194 0.815607 -0.570513 255 217 15 255
2.021851 0.390400 -1.206906 0.299753 0.173101 -0.938169 255 217 15 255
2.022748 0.419337 -1.195370 0.266823 0.555650 -0.787408 255 217 15 255
2.010032 0.442632 -1.172272 0.184088 0.815760 -0.548296 255 217 15 255
2.113218 0.418583 -1.157036 0.396344 0.581072 -0.710776 255 217 15 255
1.509271 0.541159 0.000000 -0.000000 1.000000 0.000000 255 0 255 255
0.836130 0.541159 -0.673141 -0.000000 1.000000 0.000000 255 0 255 255
0.836130 0.541159 0.673141 -0.000000 1.000000 0.000000 255 0 255 255
1.588041 0.505773 0.000000 0.379185 0.844060 0.379185 0 0 0 255
1.509271 0.541159 0.000000 0.379185 0.844060 0.379185 255 0 255 255
0.836130 0.541159 0.673141 0.379185 0.844060 0.379185 255 0 255 255
0.796745 0.505773 -0.791296 -0.668340 0.743856 0.000000 0 0 0 255
0.796745 0.505773 0.791296 -0.668340 0.743856 0.000000 0 0 0 255
0.836130 0.541159 0.673141 -0.668340 0.743856 0.000000 255 0 255 255
1.588041 0.505773 0.000000 0.379185 0.844060 -0.379185 0 0 0 255
0.796745 0.505773 -0.791296 0.379185 0.844060 -0.379185 0 0 0 255
0.836130 0.541159 -0.673141 0.379185 0.844060 -0.379185 255 0 255 255
0.796745 0.505773 0.791296 0.379185 0.844060 0.379185 0 0 0 255
0.836130 0.541159 -0.673141 -0.668340 0.743856 0.000000 255 0 255 255
1.588041 0.505773 0.000000 0.379186 0.844060 -0.379186 0 0 0 255
0.836130 0.541159 -0.673141 0.379186 0.844060 -0.379186 255 0 255 255
1.509271 0.541159 0.000000 0.379186 0.844060 -0.379186 255 0 255 255
-1.720000 0.508187 -0.920000 -0.000000 0.000000 1.000000 0 0 0 255
1.720000 0.526959 -0.920000 -0.000000 0.000000 1.000000 59 59 59 255
-1.720000 0.526959 -0.920000 -0.000000 0.000000 1.000000 59 59 59 255
1.727529 0.531024 -0.927529 0.000000 0.999792 -0.020381 165 165 165 255
-1.752471 0.530516 -0.952471 0.000000 0.999792 -0.020381 201 201 201 255
-1.727529 0.531024 -0.927529 0.000000 0.999792 -0.020381 165 165 165 255
1.727529 0.531024 0.927529 0.020381 0.999792 0.000000 165 165 165 255
1.752471 0.530516 -0.952471 0.020381 0.999792 0.000000 201 201 201 255
1.727529 0.531024 -0.927529 0.020381 0.999792 0.000000 165 165 165 255
1.760000 0.526144 0.960000 0.000000 -0.000000 1.000000 189 189 189 255
-1.760000 0.487975 0.960000 0.000000 -0.000000 1.000000 195 195 195 255
1.760000 0.487975 0.960000 0.000000 -0.000000 1.000000 195 195 195 255
1.720000 0.526959 -0.920000 -1.000000 -0.000000 -0.000000 59 59 59 255
1.720000 0.508187 0.920000 -1.000000 -0.000000 -0.000000 0 0 0 255
1.720000 0.526959 0.920000 -1.000000 -0.000000 -0.000000 59 59 59 255
1.720000 0.526959 0.920000 0.000000 0.000000 -1.000000 59 59 59 255
-1.720000 0.508187 0.920000 0.000000 0.000000 -1.000000 0 0 0 255
-1.720000 0.526959 0.920000 0.000000 0.000000 -1.000000 59 59 59 255
-1.760000 0.526144 -0.960000 0.000000 0.000000 -1.000000 189 189 189 255
1.760000 0.487975 -0.960000 0.000000 0.000000 -1.000000 195 195 195 255
-1.760000 0.487975 -0.960000 0.000000 0.000000 -1.000000 195 195 195 255
1.760000 0.526144 -0.960000 1.000000 -0.000000 0.000000 189 189 189 255
1.760000 0.487975 0.960000 1.000000 -0.000000 0.000000 195 195 195 255
1.760000 0.487975 -0.960000 1.000000 -0.000000 0.000000 195 195 195 255
-1.727529 0.531024 -0.927529 -0.020381 0.999792 0.000000 165 165 165 255
-1.752471 0.530516 0.952471 -0.020381 0.999792 0.000000 201 201 201 255
-1.727529 0.531024 0.927529 -0.020381 0.999792 0.000000 165 165 165 255
-1.760000 0.526144 0.960000 -1.000000 0.000000 0.000000 189 189 189 255
-1.760000 0.487975 -0.960000 -1.000000 0.000000 0.000000 195 195 195 255
-1.760000 0.487975 0.960000 -1.000000 0.000000 0.000000 195 195 195 255
-1.727529 0.531024 0.927529 0.000000 0.999792 0.020381 165 165 165 255
1.752471 0.530516 0.952471 0.000000 0.999792 0.020381 201 201 201 255
1.727529 0.531024 0.927529 0.000000 0.999792 0.020381 165 165 165 255
-1.720000 0.526959 -0.920000 0.475042 0.879963 0.000000 59 59 59 255
-1.727529 0.531024 0.927529 0.475042 0.879963 0.000000 165 165 165 255
-1.720000 0.526959 0.920000 0.475042 0.879963 0.000000 59 59 59 255
-1.760000 0.526144 0.960000 -0.502109 0.864804 0.000000 189 189 189 255
-1.752471 0.530516 -0.952471 -0.502109 0.864804 0.000000 201 201 201 255
-1.760000 0.526144 -0.960000 -0.502109 0.864804 0.000000 189 189 189 255
-1.720000 0.526959 -0.920000 -0.000000 0.879965 0.475039 59 59 59 255
1.727529 0.531024 -0.927529 -0.000000 0.879965 0.475039 165 165 165 255
-1.727529 0.531024 -0.927529 -0.000000 0.879965 0.475039 165 165 165 255
-1.760000 0.526144 -0.960000 0.000000 0.864806 -0.502106 189 189 189 255
1.752471 0.530516 -0.952471 0.000000 0.864806 -0.502106 201 201 201 255
1.760000 0.526144 -0.960000 0.000000 0.864806 -0.502106 189 189 189 255
1.720000 0.526959 0.920000 -0.475042 0.879963 0.000000 59 59 59 255
1.727529 0.531024 -0.927529 -0.475042 0.879963 0.000000 165 165 165 255
1.720000 0.526959 -0.920000 -0.475042 0.879963 0.000000 59 59 59 255
1.760000 0.526144 -0.960000 0.502109 0.864804 0.000000 189 189 189 255
1.752471 0.530516 0.952471 0.502109 0.864804 0.000000 201 201 201 255
1.760000 0.526144 0.960000 0.502109 0.864804 0.000000 189 189 189 255
1.720000 0.526959 0.920000 0.000000 0.879965 -0.475039 59 59 59 255
-1.727529 0.531024 0.927529 0.000000 0.879965 -0.475039 165 165 165 255
1.727529 0.531024 0.927529 0.000000 0.879965 -0.475039 165 165 165 255
1.760000 0.526144 0.960000 0.000000 0.864806 0.502106 189 189 189 255
-1.752471 0.530516 0.952471 0.000000 0.864806 0.502106 201 201 201 255
-1.760000 0.526144 0.960000 0.000000 0.864806 0.502106 189 189 189 255
-1.720000 0.508187 0.920000 1.000000 0.000000 0.000000 0 0 0 255
-1.720000 0.526959 -0.920000 1.000000 0.000000 0.000000 59 59 59 255
-1.720000 0.526959 0.920000 1.000000 0.000000 0.000000 59 59 59 255
-1.720000 0.508187 0.920000 0.000000 1.000000 -0.000000 0 0 0 255
1.720000 0.508187 -0.920000 0.000000 1.000000 -0.000000 0 0 0 255
-1.720000 0.508187 -0.920000 0.000000 1.000000 -0.000000 0 0 0 255
1.720000 0.508187 -0.920000 0.000000 0.000000 1.000000 0 0 0 255
1.752471 0.530516 -0.952471 0.000000 0.999792 -0.020381 201 201 201 255
1.752471 0.530516 0.952471 0.020381 0.999792 -0.000000 201 201 201 255
-1.760000 0.526144 0.960000 0.000000 0.000000 1.000000 189 189 189 255
1.720000 0.508187 -0.920000 -1.000000 0.000000 0.000000 0 0 0 255
1.720000 0.508187 0.920000 0.000000 0.000000 -1.000000 0 0 0 255
1.760000 0.526144 -0.960000 0.000000 0.000000 -1.000000 189 189 189 255
1.760000 0.526144 0.960000 1.000000 -0.000000 0.000000 189 189 189 255
-1.752471 0.530516 -0.952471 -0.020381 0.999792 0.000000 201 201 201 255
-1.760000 0.526144 -0.960000 -1.000000 0.000000 0.000000 189 189 189 255
-1.752471 0.530516 0.952471 0.000000 0.999792 0.020381 201 201 201 255
-1.727529 0.531024 -0.927529 0.475042 0.879963 0.000000 165 165 165 255
-1.752471 0.530516 0.952471 -0.502109 0.864804 0.000000 201 201 201 255
1.720000 0.526959 -0.920000 0.000000 0.879965 0.475039 59 59 59 255
-1.752471 0.530516 -0.952471 0.000000 0.864806 -0.502106 201 201 201 255
1.727529 0.531024 0.927529 -0.475042 0.879963 0.000000 165 165 165 255
1.752471 0.530516 -0.952471 0.502109 0.864804 0.000000 201 201 201 255
-1.720000 0.526959 0.920000 0.000000 0.879965 -0.475039 59 59 59 255
1.752471 0.530516 0.952471 -0.000000 0.864806 0.502106 201 201 201 255
-1.720000 0.508187 -0.920000 1.000000 0.000000 -0.000000 0 0 0 255
1.720000 0.508187 0.920000 0.000000 1.000000 -0.000000 0 0 0 255
3 0 1 2
3 3 4 5
3 6 7 8
3 9 10 11
3 12 13 14
3 15 16 17
3 18 19 15
3 20 21 18
3 19 22 16
3 21 23 19
3 21 24 25
3 23 26 22
3 23 27 28
3 25 29 27
3 30 31 1
3 32 33 30
3 34 35 32
3 33 36 31
3 35 37 33
3 35 38 39
3 37 20 36
3 37 24 40
3 39 29 24
3 41 42 11
3 43 44 41
3 26 45 43
3 44 46 42
3 45 47 44
3 45 27 48
3 47 34 46
3 47 38 49
3 48 29 38
3 50 51 52
3 53 54 50
3 55 56 53
3 54 57 51
3 56 58 54
3 56 59 60
3 58 61 57
3 58 62 63
3 60 64 62
3 65 66 67
3 68 69 65
3 70 71 68
3 69 72 66
3 71 73 69
3 71 74 75
3 73 55 72
3 73 59 76
3 75 64 59
3 77 78 9
3 79 80 77
3 61 81 79
3 80 82 78
3 81 83 80
3 81 62 84
3 83 70 82
3 83 74 85
3 84 64 74
3 86 87 88
3 89 90 86
3 91 92 89
3 90 93 87
3 92 94 90
3 92 95 96
3 94 97 93
3 94 98 99
3 96 100 98
3 101 102 10
3 103 104 101
3 105 106 103
3 104 107 102
3 106 108 104
3 106 109 110
3 108 91 107
3 108 95 111
3 110 100 95
3 112 113 14
3 114 115 112
3 97 116 114
3 115 117 113
3 116 118 115
3 116 98 119
3 118 105 117
3 118 109 120
3 119 100 109
3 121 122 6
3 123 124 121
3 125 126 123
3 124 127 122
3 126 128 124
3 126 129 130
3 128 131 127
3 128 132 133
3 130 134 132
3 135 136 12
3 137 138 135
3 139 140 137
3 138 141 136
3 140 142 138
3 140 143 144
3 142 125 141
3 142 129 145
3 144 134 129
3 146 147 148
3 149 150 146
3 131 151 149
3 150 152 147
3 151 153 150
3 151 132 154
3 153 139 152
3 153 143 155
3 154 134 143
3 156 157 158
3 159 160 156
3 161 162 159
3 160 163 157
3 162 164 160
3 162 165 166
3 164 167 163
3 164 168 169
3 166 170 168
3 171 172 4
3 173 174 171
3 175 176 173
3 174 177 172
3 176 178 174
3 176 179 180
3 178 161 177
3 178 165 181
3 180 170 165
3 182 183 2
3 184 185 182
3 167 186 184
3 185 187 183
3 186 188 185
3 186 168 189
3 188 175 187
3 188 179 190
3 189 170 179
3 191 192 7
3 193 194 191
3 195 196 193
3 194 197 192
3 196 198 194
3 196 199 200
3 198 201 197
3 198 202 203
3 200 204 202
3 205 206 0
3 207 208 205
3 209 210 207
3 208 211 206
3 210 212 208
3 210 213 214
3 212 195 211
3 212 199 215
3 214 204 199
3 216 217 218
3 219 220 216
3 201 221 219
3 220 222 217
3 221 223 220
3 221 202 224
3 223 209 222
3 223 213 225
3 224 204 213
3 226 227 228
3 229 230 226
3 231 232 229
3 230 233 227
3 232 234 230
3 232 235 236
3 234 237 233
3 234 238 239
3 236 240 238
3 241 242 13
3 243 244 241
3 245 246 243
3 244 247 242
3 246 248 244
3 246 249 250
3 248 231 247
3 248 235 251
3 250 240 235
3 252 253 5
3 254 255 252
3 237 256 254
3 255 257 253
3 256 258 255
3 256 238 259
3 258 245 257
3 258 249 260
3 259 240 249
3 261 262 8
3 263 264 261
3 265 266 263
3 264 267 262
3 266 268 264
3 266 269 270
3 268 271 267
3 268 272 273
3 270 274 272
3 275 276 3
3 277 278 275
3 279 280 277
3 278 281 276
3 280 282 278
3 280 283 284
3 282 265 281
3 282 269 285
3 284 274 269
3 286 287 288
3 289 290 286
3 271 291 289
3 290 292 287
3 291 293 290
3 291 272 294
3 293 279 292
3 293 283 295
3 294 274 283
3 17 86 88
3 16 89 86
3 22 91 89
3 26 107 91
3 43 102 107
3 41 10 102
3 52 30 1
3 51 32 30
3 57 34 32
3 61 46 34
3 79 42 46
3 77 11 42
3 6 65 67
3 122 68 65
3 127 70 68
3 131 82 70
3 149 78 82
3 146 9 78
3 14 135 12
3 113 137 135
3 117 139 137
3 105 152 139
3 103 147 152
3 101 148 147
3 88 226 228
3 87 229 226
3 93 231 229
3 97 247 231
3 114 242 247
3 112 13 242
3 8 121 6
3 262 123 121
3 267 125 123
3 271 141 125
3 289 136 141
3 286 12 136
3 5 275 3
3 253 277 275
3 257 279 277
3 245 292 279
3 243 287 292
3 241 288 287
3 228 156 158
3 227 159 156
3 233 161 159
3 237 177 161
3 254 172 177
3 252 4 172
3 7 261 8
3 192 263 261
3 197 265 263
3 201 281 265
3 219 276 281
3 216 3 276
3 2 205 0
3 183 207 205
3 187 209 207
3 175 222 209
3 173 217 222
3 171 218 217
3 158 15 17
3 157 18 15
3 163 20 18
3 167 36 20
3 184 31 36
3 182 1 31
3 67 191 7
3 66 193 191
3 72 195 193
3 55 211 195
3 53 206 211
3 50 0 206
3 228 17 88
3 0 52 1
3 3 218 4
3 6 67 7
3 9 148 10
3 12 288 13
3 15 19 16
3 18 21 19
3 20 40 21
3 19 23 22
3 21 25 23
3 21 40 24
3 23 28 26
3 23 25 27
3 25 24 29
3 30 33 31
3 32 35 33
3 34 49 35
3 33 37 36
3 35 39 37
3 35 49 38
3 37 40 20
3 37 39 24
3 39 38 29
3 41 44 42
3 43 45 44
3 26 28 45
3 44 47 46
3 45 48 47
3 45 28 27
3 47 49 34
3 47 48 38
3 48 27 29
3 50 54 51
3 53 56 54
3 55 76 56
3 54 58 57
3 56 60 58
3 56 76 59
3 58 63 61
3 58 60 62
3 60 59 64
3 65 69 66
3 68 71 69
3 70 85 71
3 69 73 72
3 71 75 73
3 71 85 74
3 73 76 55
3 73 75 59
3 75 74 64
3 77 80 78
3 79 81 80
3 61 63 81
3 80 83 82
3 81 84 83
3 81 63 62
3 83 85 70
3 83 84 74
3 84 62 64
3 86 90 87
3 89 92 90
3 91 111 92
3 90 94 93
3 92 96 94
3 92 111 95
3 94 99 97
3 94 96 98
3 96 95 100
3 101 104 102
3 103 106 104
3 105 120 106
3 104 108 107
3 106 110 108
3 106 120 109
3 108 111 91
3 108 110 95
3 110 109 100
3 112 115 113
3 114 116 115
3 97 99 116
3 115 118 117
3 116 119 118
3 116 99 98
3 118 120 105
3 118 119 109
3 119 98 100
3 121 124 122
3 123 126 124
3 125 145 126
3 124 128 127
3 126 130 128
3 126 145 129
3 128 133 131
3 128 130 132
3 130 129 134
3 135 138 136
3 137 140 138
3 139 155 140
3 138 142 141
3 140 144 142
3 140 155 143
3 142 145 125
3 142 144 129
3 144 143 134
3 146 150 147
3 149 151 150
3 131 133 151
3 150 153 152
3 151 154 153
3 151 133 132
3 153 155 139
3 153 154 143
3 154 132 134
3 156 160 157
3 159 162 160
3 161 181 162
3 160 164 163
3 162 166 164
3 162 181 165
3 164 169 167
3 164 166 168
3 166 165 170
3 171 174 172
3 173 176 174
3 175 190 176
3 174 178 177
3 176 180 178
3 176 190 179
3 178 181 161
3 178 180 165
3 180 179 170
3 182 185 183
3 184 186 185
3 167 169 186
3 185 188 187
3 186 189 188
3 186 169 168
3 188 190 175
3 188 189 179
3 189 168 170
3 191 194 192
3 193 196 194
3 195 215 196
3 194 198 197
3 196 200 198
3 196 215 199
3 198 203 201
3 198 200 202
3 200 199 204
3 205 208 206
3 207 210 208
3 209 225 210
3 208 212 211
3 210 214 212
3 210 225 213
3 212 215 195
3 212 214 199
3 214 213 204
3 216 220 217
3 219 221 220
3 201 203 221
3 220 223 222
3 221 224 223
3 221 203 202
3 223 225 209
3 223 224 213
3 224 202 204
3 226 230 227
3 229 232 230
3 231 251 232
3 230 234 233
3 232 236 234
3 232 251 235
3 234 239 237
3 234 236 238
3 236 235 240
3 241 244 242
3 243 246 244
3 245 260 246
3 244 248 247
3 246 250 248
3 246 260 249
3 248 251 231
3 248 250 235
3 250 249 240
3 252 255 253
3 254 256 255
3 237 239 256
3 255 258 257
3 256 259 258
3 256 239 238
3 258 260 245
3 258 259 249
3 259 238 240
3 261 264 262
3 263 266 264
3 265 285 266
3 264 268 267
3 266 270 268
3 266 285 269
3 268 273 271
3 268 270 272
3 270 269 274
3 275 278 276
3 277 280 278
3 279 295 280
3 278 282 281
3 280 284 282
3 280 295 283
3 282 285 265
3 282 284 269
3 284 283 274
3 286 290 287
3 289 291 290
3 271 273 291
3 290 293 292
3 291 294 293
3 291 273 272
3 293 295 279
3 293 294 283
3 294 272 274
3 17 16 86
3 16 22 89
3 22 26 91
3 26 43 107
3 43 41 102
3 41 11 10
3 52 51 30
3 51 57 32
3 57 61 34
3 61 79 46
3 79 77 42
3 77 9 11
3 6 122 65
3 122 127 68
3 127 131 70
3 131 149 82
3 149 146 78
3 146 148 9
3 14 113 135
3 113 117 137
3 117 105 139
3 105 103 152
3 103 101 147
3 101 10 148
3 88 87 226
3 87 93 229
3 93 97 231
3 97 114 247
3 114 112 242
3 112 14 13
3 8 262 121
3 262 267 123
3 267 271 125
3 271 289 141
3 289 286 136
3 286 288 12
3 5 253 275
3 253 257 277
3 257 245 279
3 245 243 292
3 243 241 287
3 241 13 288
3 228 227 156
3 227 233 159
3 233 237 161
3 237 254 177
3 254 252 172
3 252 5 4
3 7 192 261
3 192 197 263
3 197 201 265
3 201 219 281
3 219 216 276
3 216 218 3
3 2 183 205
3 183 187 207
3 187 175 209
3 175 173 222
3 173 171 217
3 171 4 218
3 158 157 15
3 157 163 18
3 163 167 20
3 167 184 36
3 184 182 31
3 182 2 1
3 67 66 191
3 66 72 193
3 72 55 195
3 55 53 211
3 53 50 206
3 50 52 0
3 228 158 17
3 296 297 298
3 299 300 301
3 302 303 304
3 305 306 307
3 299 301 308
3 302 304 309
3 310 311 312
3 313 314 315
3 316 317 318
3 319 320 321
3 322 323 324
3 325 326 327
3 328 329 330
3 331 332 333
3 334 335 336
3 337 338 339
3 340 341 342
3 343 344 345
3 346 347 348
3 349 350 351
3 352 353 354
3 355 356 357
3 358 359 360
3 361 362 363
3 364 365 366
3 367 368 369
3 370 371 372
3 373 374 375
3 313 376 314
3 316 377 317
3 319 378 320
3 322 379 323
3 325 380 326
3 328 381 329
3 331 382 332
3 334 383 335
3 337 384 338
3 340 385 341
3 343 386 344
3 346 387 347
3 349 388 350
3 352 389 353
3 355 390 356
3 358 391 359
3 361 392 362
3 364 393 365
3 367 394 368
3 370 395 371
3 373 396 374
